<?xml version="1.0" encoding="UTF-8"?>
<!DOCTYPE svg PUBLIC "-//W3C//DTD SVG 1.1//EN" "http://www.w3.org/Graphics/SVG/1.1/DTD/svg11.dtd">
<!-- Creator: CorelDRAW 2020 (64-Bit) -->
<svg xmlns="http://www.w3.org/2000/svg" xml:space="preserve" width="0.836638in" height="0.262661in" version="1.1" style="shape-rendering:geometricPrecision; text-rendering:geometricPrecision; image-rendering:optimizeQuality; fill-rule:evenodd; clip-rule:evenodd"
viewBox="0 0 364.93 114.57"
 xmlns:xlink="http://www.w3.org/1999/xlink"
 xmlns:xodm="http://www.corel.com/coreldraw/odm/2003">
 <defs>
  <style type="text/css">
   <![CDATA[
    .fil0 {fill:#999999;fill-rule:nonzero}
   ]]>
  </style>
 </defs>
 <g id="Layer_x0020_1">
  <metadata id="CorelCorpID_0Corel-Layer"/>
  <path class="fil0" d="M76.11 11.51c0,-6.36 5.16,-11.51 11.51,-11.51 6.36,0 11.51,5.16 11.51,11.51l0 53.5c0,13.59 -5.58,25.99 -14.58,34.99l0.02 0.02c-8.97,8.97 -21.37,14.55 -35.01,14.55 -13.64,0 -26.04,-5.57 -35.01,-14.55 -8.98,-8.98 -14.55,-21.37 -14.55,-35.01l0 -53.5c0,-6.36 5.16,-11.51 11.51,-11.51 6.36,0 11.51,5.16 11.51,11.51l0 53.5c0,7.29 2.99,13.92 7.81,18.74 4.81,4.81 11.45,7.81 18.74,7.81 7.28,0 13.92,-2.99 18.73,-7.81l0.02 0.02 0.02 -0.02c4.79,-4.79 7.76,-11.42 7.76,-18.74l0 -53.5zm98.13 46.19c5.14,0 9.3,4.16 9.3,9.3 0,5.14 -4.16,9.3 -9.3,9.3 -5.14,0 -9.3,-4.16 -9.3,-9.3 0,-5.14 4.16,-9.3 9.3,-9.3zm11.3 45.36c0,6.36 5.16,11.51 11.51,11.51 6.36,0 11.51,-5.16 11.51,-11.51l0 -53.5c0,-13.59 -5.58,-25.99 -14.58,-34.99l0.02 -0.02c-8.97,-8.97 -21.37,-14.55 -35.01,-14.55 -13.64,0 -26.04,5.57 -35.01,14.55 -8.98,8.98 -14.55,21.37 -14.55,35.01l0 53.5c0,6.36 5.16,11.51 11.51,11.51 6.36,0 11.51,-5.16 11.51,-11.51l0 -53.5c0,-7.29 2.99,-13.92 7.81,-18.74 4.81,-4.81 11.45,-7.81 18.74,-7.81 7.28,0 13.92,2.99 18.73,7.81l0.02 -0.02 0.02 0.02c4.79,4.79 7.76,11.42 7.76,18.74l0 53.5zm123.02 -102.15c15.57,0 29.66,6.31 39.87,16.51 10.2,10.2 16.51,24.3 16.51,39.87 0,15.57 -6.31,29.66 -16.51,39.87 -10.2,10.2 -24.3,16.51 -39.87,16.51 -15.57,0 -29.66,-6.31 -39.87,-16.51 -10.2,-10.2 -16.51,-24.3 -16.51,-39.87 0,-15.57 6.31,-29.66 16.51,-39.87 10.2,-10.2 24.3,-16.51 39.87,-16.51zm23.59 32.79c-6.03,-6.03 -14.38,-9.77 -23.59,-9.77 -9.21,0 -17.56,3.73 -23.59,9.77 -6.03,6.03 -9.77,14.38 -9.77,23.59 0,9.21 3.73,17.55 9.77,23.59 6.03,6.03 14.38,9.77 23.59,9.77 9.21,0 17.55,-3.73 23.59,-9.77 6.03,-6.03 9.77,-14.38 9.77,-23.59 0,-9.21 -3.74,-17.56 -9.77,-23.59zm-113.29 -22.18c0,-6.36 5.16,-11.51 11.51,-11.51 6.36,0 11.51,5.16 11.51,11.51l0 91.55c0,6.36 -5.16,11.51 -11.51,11.51 -6.36,0 -11.51,-5.16 -11.51,-11.51l0 -91.55z"/>
 </g>
</svg>
